# xmcd
#
# Track frame offsets:
#	150
#	21407
#	40417
#	61185
#	82025
#	102000
#	120512
#	144120
#	164547
#	189777
#
# Disc length: 2779 seconds
#
# Revision: 1
# Processed by: cddbd v1.5.1PL0 Copyright (c) Steve Scherf et al.
# Submitted via: CDex 1.50Beta5
#
DISCID=790ad90a
DTITLE=坂上香織 - 季節のプロローグ
DYEAR=1988
DGENRE=Pop
TTITLE0=赤いポシェット
TTITLE1=レモンを齧りながら
TTITLE2=緑の散歩道
TTITLE3=友達になりたい
TTITLE4=蜜の月
TTITLE5=レースのカーディガン
TTITLE6=わがままな空模様
TTITLE7=氷の人魚
TTITLE8=Privacy(Great Re-mix)
TTITLE9=海を見てる少女
EXTD=
EXTT0=
EXTT1=
EXTT2=
EXTT3=
EXTT4=
EXTT5=
EXTT6=
EXTT7=
EXTT8=
EXTT9=
PLAYORDER=
